<svg xmlns="http://www.w3.org/2000/svg" viewBox="0 0 128 128">
  <defs>
    <linearGradient id="body" x1="24" y1="12" x2="102" y2="118" gradientUnits="userSpaceOnUse">
      <stop offset="0" stop-color="#fff6b0"/>
      <stop offset="0.22" stop-color="#ffe177"/>
      <stop offset="0.48" stop-color="#ffc74d"/>
      <stop offset="0.75" stop-color="#e99031"/>
      <stop offset="1" stop-color="#9f541e"/>
    </linearGradient>
    <linearGradient id="left" x1="16" y1="34" x2="66" y2="78" gradientUnits="userSpaceOnUse">
      <stop offset="0" stop-color="#fff9ca" stop-opacity=".94"/>
      <stop offset="1" stop-color="#ffd35a" stop-opacity=".18"/>
    </linearGradient>
    <linearGradient id="right" x1="80" y1="34" x2="112" y2="104" gradientUnits="userSpaceOnUse">
      <stop offset="0" stop-color="#ffe078" stop-opacity=".65"/>
      <stop offset="1" stop-color="#8e4319" stop-opacity=".46"/>
    </linearGradient>
    <radialGradient id="shine" cx="36%" cy="24%" r="45%">
      <stop offset="0" stop-color="#fff" stop-opacity=".96"/>
      <stop offset=".55" stop-color="#fff" stop-opacity=".18"/>
      <stop offset="1" stop-color="#fff" stop-opacity="0"/>
    </radialGradient>
    <filter id="shadow" x="-35%" y="-35%" width="170%" height="170%">
      <feDropShadow dx="0" dy="5" stdDeviation="5" flood-color="#1b0c00" flood-opacity=".38"/>
      <feDropShadow dx="0" dy="0" stdDeviation="5" flood-color="#ffcf61" flood-opacity=".42"/>
    </filter>
  </defs>
  <path filter="url(#shadow)" fill="url(#body)" stroke="#fff0a5" stroke-width="4" stroke-linejoin="round" d="M64 9.5c3.4 0 6.5 2 7.9 5.1l12.6 28.2 30.5 3.3c3.4.4 6.2 2.8 7.2 6.1 1 3.2 0 6.8-2.6 9L96.8 81.9l6.3 30.3c.7 3.4-.7 6.9-3.5 8.9-2.8 2-6.5 2.2-9.5.5L64 106.1l-26.1 15.5c-3 1.8-6.7 1.6-9.5-.5-2.8-2-4.2-5.5-3.5-8.9l6.3-30.3L8.4 61.2c-2.6-2.3-3.6-5.8-2.6-9 1-3.3 3.8-5.7 7.2-6.1l30.5-3.3 12.6-28.2c1.4-3.1 4.5-5.1 7.9-5.1Z"/>
  <path fill="url(#left)" d="M64 16 77.7 46.7 44.7 43.3 14.3 53.8 53.1 60.7 64 16Z" opacity=".72"/>
  <path fill="url(#right)" d="M64 16 77.7 46.7 113.7 53.8 84.4 78.4 97 113.1 64 93.5V16Z" opacity=".42"/>
  <path fill="#ffffff" d="M64 16 53.1 60.7 31.2 80.9 58.8 78.8 64 93.5 69.2 78.8 96.8 80.9 74.9 60.7 64 16Z" opacity=".12"/>
  <ellipse cx="48" cy="34" rx="19" ry="10" fill="url(#shine)" transform="rotate(-22 48 34)"/>
</svg>