<svg xmlns="http://www.w3.org/2000/svg" viewBox="0 0 128 128">
  <defs>
    <linearGradient id="body" x1="16" y1="10" x2="112" y2="118" gradientUnits="userSpaceOnUse">
      <stop offset="0" stop-color="#72f6ff"/>
      <stop offset="0.22" stop-color="#62a0ff"/>
      <stop offset="0.45" stop-color="#9f75ff"/>
      <stop offset="0.65" stop-color="#ff74d8"/>
      <stop offset="0.84" stop-color="#ff9a78"/>
      <stop offset="1" stop-color="#ffe470"/>
    </linearGradient>
    <linearGradient id="left" x1="16" y1="28" x2="70" y2="84" gradientUnits="userSpaceOnUse">
      <stop offset="0" stop-color="#e8ffff" stop-opacity=".88"/>
      <stop offset="1" stop-color="#8fc5ff" stop-opacity=".1"/>
    </linearGradient>
    <linearGradient id="right" x1="82" y1="30" x2="110" y2="112" gradientUnits="userSpaceOnUse">
      <stop offset="0" stop-color="#ffecff" stop-opacity=".5"/>
      <stop offset="1" stop-color="#5520a8" stop-opacity=".36"/>
    </linearGradient>
    <radialGradient id="shine" cx="34%" cy="22%" r="46%">
      <stop offset="0" stop-color="#fff" stop-opacity=".96"/>
      <stop offset=".58" stop-color="#fff" stop-opacity=".16"/>
      <stop offset="1" stop-color="#fff" stop-opacity="0"/>
    </radialGradient>
    <filter id="shadow" x="-40%" y="-40%" width="180%" height="180%">
      <feDropShadow dx="0" dy="5" stdDeviation="5" flood-color="#17072c" flood-opacity=".38"/>
      <feDropShadow dx="0" dy="0" stdDeviation="5" flood-color="#ed78ff" flood-opacity=".45"/>
      <feDropShadow dx="0" dy="0" stdDeviation="2" flood-color="#71f2ff" flood-opacity=".36"/>
    </filter>
  </defs>
  <path filter="url(#shadow)" fill="url(#body)" stroke="#fff1ff" stroke-width="4" stroke-linejoin="round" d="M64 9.5c3.4 0 6.5 2 7.9 5.1l12.6 28.2 30.5 3.3c3.4.4 6.2 2.8 7.2 6.1 1 3.2 0 6.8-2.6 9L96.8 81.9l6.3 30.3c.7 3.4-.7 6.9-3.5 8.9-2.8 2-6.5 2.2-9.5.5L64 106.1l-26.1 15.5c-3 1.8-6.7 1.6-9.5-.5-2.8-2-4.2-5.5-3.5-8.9l6.3-30.3L8.4 61.2c-2.6-2.3-3.6-5.8-2.6-9 1-3.3 3.8-5.7 7.2-6.1l30.5-3.3 12.6-28.2c1.4-3.1 4.5-5.1 7.9-5.1Z"/>
  <path fill="url(#left)" d="M64 16 77.7 46.7 44.7 43.3 14.3 53.8 53.1 60.7 64 16Z" opacity=".68"/>
  <path fill="url(#right)" d="M64 16 77.7 46.7 113.7 53.8 84.4 78.4 97 113.1 64 93.5V16Z" opacity=".36"/>
  <path fill="#ffffff" d="M64 16 53.1 60.7 31.2 80.9 58.8 78.8 64 93.5 69.2 78.8 96.8 80.9 74.9 60.7 64 16Z" opacity=".10"/>
  <ellipse cx="48" cy="34" rx="19" ry="10" fill="url(#shine)" transform="rotate(-22 48 34)"/>
</svg>